<svg width="20" height="20" viewBox="0 0 20 20" fill="none" xmlns="http://www.w3.org/2000/svg">
<path d="M16.853 16.146L14.006 13.302C14.937 12.211 15.5 10.797 15.5 9.25C15.5 5.798 12.702 3 9.25 3C5.798 3 3 5.798 3 9.25C3 12.702 5.798 15.5 9.25 15.5C10.795 15.5 12.208 14.938 13.299 14.009L16.147 16.853C16.245 16.951 16.372 16.999 16.5 16.999C16.628 16.999 16.756 16.95 16.854 16.852C17.049 16.658 17.049 16.341 16.853 16.146ZM4 9.25C4 6.355 6.355 4 9.25 4C12.145 4 14.5 6.355 14.5 9.25C14.5 12.145 12.145 14.5 9.25 14.5C6.355 14.5 4 12.145 4 9.25Z" fill="#212327"/>
</svg>
